HIERARCHY
ROOT SpineBase
{
  OFFSET 0.000000 0.000000 0.000000
  CHANNELS 6 Xposition Yposition Zposition Zrotation Xrotation Yrotation
  JOINT SpineMid
  {
    OFFSET 0.000000 32.968837 0.000000
    CHANNELS 3 Zrotation Xrotation Yrotation
    JOINT SpineShoulder
    {
      OFFSET 0.006911 24.464673 -0.796489
      CHANNELS 3 Zrotation Xrotation Yrotation
      JOINT Neck
      {
        OFFSET 0.010922 8.084409 -0.590569
        CHANNELS 3 Zrotation Xrotation Yrotation
        JOINT Head
        {
          OFFSET -2.706217 12.661762 3.858293
          CHANNELS 3 Zrotation Xrotation Yrotation
          End Site
          {
            OFFSET 0 0 0
          }
        }
      }
      JOINT ShoulderLeft
      {
        OFFSET -8.523177 -8.109719 -15.558999
        CHANNELS 3 Zrotation Xrotation Yrotation
        JOINT ElbowLeft
        {
          OFFSET -11.189550 -20.153308 15.820248
          CHANNELS 3 Zrotation Xrotation Yrotation
          JOINT WristLeft
          {
            OFFSET -27.297380 6.894366 -8.875782
            CHANNELS 3 Zrotation Xrotation Yrotation
            JOINT HandLeft
            {
              OFFSET -8.550284 1.527673 -1.973603
              CHANNELS 3 Zrotation Xrotation Yrotation
              JOINT HandTipLeft
              {
                OFFSET -6.777228 -0.704946 -0.754665
                CHANNELS 3 Zrotation Xrotation Yrotation
                End Site
                {
                  OFFSET 0 0 0
                }
              }
              JOINT ThumbLeft
              {
                OFFSET 1.136509 -6.952160 -0.926732
                CHANNELS 3 Zrotation Xrotation Yrotation
                End Site
                {
                  OFFSET 0 0 0
                }
              }
            }
          }
        }
      }
      JOINT ShoulderRight
      {
        OFFSET 0.169515 -5.794831 -13.135047
        CHANNELS 3 Zrotation Xrotation Yrotation
        JOINT ElbowRight
        {
          OFFSET -5.510213 -26.361894 -8.623932
          CHANNELS 3 Zrotation Xrotation Yrotation
          JOINT WristRight
          {
            OFFSET -17.335090 -10.554771 5.811989
            CHANNELS 3 Zrotation Xrotation Yrotation
            JOINT HandRight
            {
              OFFSET -4.809158 2.243256 2.186222
              CHANNELS 3 Zrotation Xrotation Yrotation
              JOINT HandTipRight
              {
                OFFSET -5.348681 0.985019 2.253563
                CHANNELS 3 Zrotation Xrotation Yrotation
                End Site
                {
                  OFFSET 0 0 0
                }
              }
              JOINT ThumbRight
              {
                OFFSET -0.379604 -2.441313 -2.257498
                CHANNELS 3 Zrotation Xrotation Yrotation
                End Site
                {
                  OFFSET 0 0 0
                }
              }
            }
          }
        }
      }
    }
  }
  JOINT HipLeft
  {
    OFFSET -6.571690 1.159490 -1.693068
    CHANNELS 3 Zrotation Xrotation Yrotation
    JOINT KneeLeft
    {
      OFFSET -0.223448 -41.608470 -2.781796
      CHANNELS 3 Zrotation Xrotation Yrotation
      JOINT AnkleLeft
      {
        OFFSET 2.369324 -37.265990 3.466027
        CHANNELS 3 Zrotation Xrotation Yrotation
        JOINT FootLeft
        {
          OFFSET 3.181825 -4.091858 -13.217671
          CHANNELS 3 Zrotation Xrotation Yrotation
          End Site
          {
            OFFSET 0 0 0
          }
        }
      }
    }
  }
  JOINT HipRight
  {
    OFFSET 6.757052 0.827056 -5.069092
    CHANNELS 3 Zrotation Xrotation Yrotation
    JOINT KneeRight
    {
      OFFSET 5.204174 -40.830908 15.943728
      CHANNELS 3 Zrotation Xrotation Yrotation
      JOINT AnkleRight
      {
        OFFSET -4.068547 -34.649086 0.712092
        CHANNELS 3 Zrotation Xrotation Yrotation
        JOINT FootRight
        {
          OFFSET 1.770458 -4.472264 -12.330859
          CHANNELS 3 Zrotation Xrotation Yrotation
          End Site
          {
            OFFSET 0 0 0
          }
        }
      }
    }
  }
}
MOTION
Frames: 12
Frame Time: 0.033333
-10.343427 83.384394 296.991988 -0.000000 0.000000 14.213470 -0.000000 0.000000 -14.213470 -0.000000 0.000000 0.000000 -0.000000 0.000000 0.000000 0.000000 0.000000 0.000000 -0.000000 0.000000 0.000000 -0.000000 0.000000 0.000000 -0.000000 0.000000 0.000000 -0.000000 0.000000 0.000000 0.000000 0.000000 0.000000 0.000000 0.000000 0.000000 -0.000000 0.000000 0.000000 -0.000000 0.000000 0.000000 -0.000000 0.000000 0.000000 -0.000000 0.000000 0.000000 0.000000 0.000000 0.000000 0.000000 0.000000 0.000000 -0.000000 0.000000 -14.213470 -0.000000 0.000000 0.000000 -0.000000 0.000000 0.000000 0.000000 0.000000 0.000000 -0.000000 0.000000 -14.213470 -0.000000 0.000000 0.000000 -0.000000 0.000000 0.000000 0.000000 0.000000 0.000000
-10.455424 83.351361 296.936727 -0.014885 -0.023161 14.311877 0.020149 0.018763 -14.311883 -0.000000 0.000000 0.000000 -0.000000 0.000000 0.000000 0.000000 0.000000 0.000000 -0.000000 0.000000 0.000000 -0.000000 0.000000 0.000000 -1.629511 0.382784 0.046458 -1.751573 -0.030463 0.143235 0.000000 0.000000 0.000000 0.000000 0.000000 0.000000 -0.000000 0.000000 0.000000 -0.925865 -0.250096 -0.099661 0.911983 2.725818 5.297826 1.165077 -2.501993 -7.653577 0.000000 0.000000 0.000000 0.000000 0.000000 0.000000 0.020149 0.018763 -14.311883 -0.000000 0.000000 0.000000 -0.000000 0.000000 0.000000 0.000000 0.000000 0.000000 0.020149 0.018763 -14.311883 -0.924859 0.209872 -0.041919 2.100719 -3.448289 -4.789219 0.000000 0.000000 0.000000
-10.568904 83.311701 296.894926 -0.032245 -0.047610 14.410152 0.043079 0.038088 -14.410180 -0.000000 0.000000 0.000000 -0.000000 0.000000 0.000000 0.000000 0.000000 0.000000 -0.474061 0.680010 -0.748642 -0.431192 -0.299934 1.116617 -2.185631 0.369539 -0.192943 -3.229215 -0.066214 0.055350 0.000000 0.000000 0.000000 0.000000 0.000000 0.000000 -0.000000 0.000000 0.000000 -1.843495 -0.573139 -0.080747 1.580404 4.862565 9.211746 2.168069 -4.610781 -13.895129 0.000000 0.000000 0.000000 0.000000 0.000000 0.000000 0.043079 0.038088 -14.410180 -0.697977 0.551361 -0.026527 1.029439 0.527472 -0.192667 0.000000 0.000000 0.000000 0.043079 0.038088 -14.410180 -1.555568 0.305219 -0.063569 3.436008 -6.625341 -8.753599 0.000000 0.000000 0.000000
-10.683866 83.265413 296.866587 -0.052069 -0.073340 14.508594 0.068782 0.057956 -14.508662 -0.000000 0.000000 0.000000 -0.000000 0.000000 0.000000 0.000000 0.000000 0.000000 -1.049251 1.006807 -1.375904 -0.191004 -0.483531 1.882126 -3.188174 0.581987 -0.090318 -4.330295 -0.103603 -0.273579 0.000000 0.000000 0.000000 0.000000 0.000000 0.000000 -0.000000 0.000000 0.000000 -2.756602 -0.972135 0.052728 2.150387 6.414225 11.764692 3.037235 -6.213822 -18.675091 0.000000 0.000000 0.000000 0.000000 0.000000 0.000000 0.856805 -0.577447 -14.564510 -1.819315 1.151483 0.038468 1.388510 0.262377 -0.747528 0.000000 0.000000 0.000000 0.900919 -0.213433 -14.173709 -2.761153 0.357399 -0.398925 4.028185 -9.276633 -11.583990 0.000000 0.000000 0.000000
-10.800310 83.212498 296.851708 -0.074346 -0.100339 14.607516 0.097248 0.078346 -14.607647 -0.000000 0.000000 0.000000 -0.771623 0.210617 0.281814 0.000000 0.000000 0.000000 -1.850088 1.333695 -2.171544 0.356538 -0.683228 2.791603 -4.181961 0.818600 0.159966 -4.973512 -0.144650 -0.857183 0.000000 0.000000 0.000000 0.000000 0.000000 0.000000 -0.000000 0.000000 0.000000 -3.668244 -1.450669 0.297886 2.710838 7.416264 13.004593 3.794329 -7.224637 -21.976879 0.000000 0.000000 0.000000 0.000000 0.000000 0.000000 1.013386 -0.671497 -14.672186 -2.077706 1.356403 0.051978 1.655496 -0.357702 -1.638717 0.000000 0.000000 0.000000 1.198987 -0.552393 -14.168133 -3.155767 0.516680 -0.475324 3.956719 -11.209843 -13.027716 0.000000 0.000000 0.000000
-10.918236 83.152956 296.850290 -0.099065 -0.128599 14.707249 0.128468 0.099234 -14.707472 -0.000000 0.000000 0.000000 -0.869111 0.231116 0.316308 0.000000 0.000000 0.000000 -2.877594 1.669549 -3.135821 1.215525 -0.889597 3.849714 -5.202430 1.084200 0.578946 -5.092199 -0.199765 -1.715518 0.000000 0.000000 0.000000 0.000000 0.000000 0.000000 -0.000000 0.000000 0.000000 -4.580813 -2.012931 0.652866 3.299910 7.902856 12.969691 4.458722 -7.575343 -23.785937 0.000000 0.000000 0.000000 0.000000 0.000000 0.000000 1.098689 -0.709875 -14.775923 -2.159243 1.473132 0.062223 1.826058 -1.387916 -2.933001 0.000000 0.000000 0.000000 1.499307 -1.034035 -14.163872 -3.313108 0.712203 -0.526998 3.314891 -12.299683 -12.884461 0.000000 0.000000 0.000000
-11.055281 83.059757 296.861833 -0.138965 -0.160981 14.925280 0.175739 0.119757 -14.925658 -0.000000 0.000000 0.000000 -0.999258 0.194133 0.348155 0.000000 0.000000 0.000000 -4.385067 1.708214 -4.284092 2.833655 -0.797974 5.101622 -6.355659 1.445364 1.436305 -2.716205 -0.392098 -4.090478 0.000000 0.000000 0.000000 0.000000 0.000000 0.000000 -0.000000 0.000000 0.000000 -5.526270 -2.730891 1.198076 4.013227 8.196709 12.005006 6.641865 -7.243752 -23.837978 0.000000 0.000000 0.000000 0.000000 0.000000 0.000000 1.228958 -0.726273 -14.999789 -2.261743 1.514444 0.070526 1.941292 -4.404817 -6.088772 0.000000 0.000000 0.000000 1.868596 -1.767921 -14.254331 -3.305145 0.952592 -0.565438 3.307912 -11.597442 -14.545434 0.000000 0.000000 0.000000
-11.134219 82.980925 296.863486 -0.135687 -0.183856 15.071954 0.178828 0.142248 -15.072393 -0.000000 0.000000 0.000000 -1.028106 0.193245 0.356829 0.000000 0.000000 0.000000 -5.161043 3.363414 -5.754260 4.122721 -2.072576 7.940007 -9.044215 2.171993 2.430337 -0.712034 -1.124186 -6.073498 0.000000 0.000000 0.000000 0.000000 0.000000 0.000000 -0.000000 0.000000 0.000000 -6.118921 -3.717025 2.293030 5.263265 7.525820 7.077478 5.240497 -5.854266 -22.416653 0.000000 0.000000 0.000000 0.000000 0.000000 0.000000 1.103502 -0.633832 -15.138905 -1.882990 1.472429 0.077219 1.743535 -3.695162 -5.540575 0.000000 0.000000 0.000000 2.299075 -3.272265 -14.228791 -3.182235 1.683189 -0.579852 0.194296 -7.831825 -4.443012 0.000000 0.000000 0.000000
-11.266746 82.910586 296.893349 -0.187784 -0.204574 15.073139 0.234524 0.148701 -15.073779 -0.000000 0.000000 0.000000 -1.031170 0.157207 0.349767 0.000000 0.000000 0.000000 -6.465756 2.658157 -6.317382 5.878979 -1.409230 7.969025 -9.221678 2.249637 2.325232 -1.079485 -0.692651 -6.785185 0.000000 0.000000 0.000000 0.000000 0.000000 0.000000 -0.000000 0.000000 0.000000 -5.066649 -3.508546 2.585228 1.437380 4.306227 3.314965 8.744312 -2.291230 -17.511006 0.000000 0.000000 0.000000 0.000000 0.000000 0.000000 0.844741 -0.465084 -15.119843 -1.149113 1.269439 0.072603 1.203304 -6.204407 -7.878571 0.000000 0.000000 0.000000 2.650803 -4.215545 -14.106144 -2.701151 1.871600 -0.586057 -2.149388 -1.119959 2.763763 0.000000 0.000000 0.000000
-11.419675 82.866136 296.962484 -0.264413 -0.261211 14.751318 0.322211 0.185273 -14.752442 -0.000000 0.000000 0.000000 -0.810425 0.331140 0.320275 0.000000 0.000000 0.000000 -8.735133 2.141876 -7.671552 7.851279 -0.705652 8.045011 -13.076394 3.021936 2.897349 0.393715 -1.347990 -5.214762 0.000000 0.000000 0.000000 0.000000 0.000000 0.000000 -0.000000 0.000000 0.000000 -7.337511 -4.660036 2.937100 4.255277 4.454786 0.236488 7.598404 -0.618468 -12.246984 0.000000 0.000000 0.000000 0.000000 0.000000 0.000000 0.322211 0.185273 -14.752442 -0.000000 0.000000 0.000000 0.173488 -11.348721 -13.748206 0.000000 0.000000 0.000000 2.652872 -3.620486 -13.830305 -1.624966 0.821364 -0.516870 -4.313854 1.726473 7.310899 0.000000 0.000000 0.000000
-11.561019 82.859743 297.040765 -0.326145 -0.327004 14.676700 0.398357 0.233695 -14.678443 -0.000000 0.000000 0.000000 -0.000000 0.000000 0.000000 0.000000 0.000000 0.000000 -9.617997 1.563486 -8.002842 4.960206 -0.084434 4.559468 -8.692753 1.778387 4.642891 -0.610264 -1.361395 -1.890244 0.000000 0.000000 0.000000 0.000000 0.000000 0.000000 0.772292 -0.102986 -0.230821 -11.078682 -6.039877 3.444031 8.012552 4.592192 -3.616551 3.510702 0.068416 -7.290125 0.000000 0.000000 0.000000 0.000000 0.000000 0.000000 0.398357 0.233695 -14.678443 1.014507 0.213098 0.105980 -2.266149 -20.405499 -28.752042 0.000000 0.000000 0.000000 2.899867 -3.875204 -13.688108 -1.718700 1.493503 -0.625788 -4.575375 3.579646 8.218596 0.000000 0.000000 0.000000
-11.687894 82.798596 297.163517 -0.338277 -0.372444 15.076618 0.423514 0.271628 -15.078722 -0.000000 0.000000 0.000000 -0.000000 0.000000 0.000000 0.000000 0.000000 0.000000 -12.776416 1.489077 -10.174393 6.824776 0.558423 4.716384 -11.832902 1.993373 2.644889 5.288306 -1.240696 -1.801115 0.000000 0.000000 0.000000 0.000000 0.000000 0.000000 -0.000000 0.000000 0.000000 -11.094956 -4.496129 0.696514 -0.871925 -0.747493 -0.795405 9.963797 3.092531 -8.761910 0.000000 0.000000 0.000000 0.000000 0.000000 0.000000 -0.675808 1.094756 -14.983098 2.920529 -0.544574 0.089233 -18.683098 -38.636495 -63.744225 0.000000 0.000000 0.000000 2.874810 -3.754690 -14.099488 -1.751112 2.310452 -0.739232 -5.331781 -5.401443 8.875798 0.000000 0.000000 0.000000
